<mxfile host="app.diagrams.net" agent="Mozilla/5.0 (Windows NT 10.0; Win64; x64) AppleWebKit/537.36 (KHTML, like Gecko) Chrome/126.0.0.0 YaBrowser/24.7.0.0 Safari/537.36" version="24.7.17">
  <diagram name="Страница — 1" id="jtJ6E0JJmObbsnruJacc">
    <mxGraphModel dx="2087" dy="931" grid="0" gridSize="10" guides="1" tooltips="1" connect="1" arrows="1" fold="1" page="0" pageScale="1" pageWidth="827" pageHeight="1169" background="none" math="0" shadow="0">
      <root>
        <mxCell id="0" />
        <mxCell id="1" parent="0" />
        <mxCell id="GCL94RryrftMxqot2WSn-16" value="" style="edgeStyle=orthogonalEdgeStyle;rounded=0;orthogonalLoop=1;jettySize=auto;html=1;exitX=0.5;exitY=1;exitDx=0;exitDy=0;" edge="1" parent="1" source="GCL94RryrftMxqot2WSn-1" target="GCL94RryrftMxqot2WSn-8">
          <mxGeometry relative="1" as="geometry">
            <mxPoint x="820.0588235294117" y="110" as="sourcePoint" />
            <Array as="points">
              <mxPoint x="820" y="110" />
              <mxPoint x="950" y="110" />
            </Array>
          </mxGeometry>
        </mxCell>
        <mxCell id="GCL94RryrftMxqot2WSn-17" style="edgeStyle=orthogonalEdgeStyle;rounded=0;orthogonalLoop=1;jettySize=auto;html=1;entryX=0.5;entryY=0;entryDx=0;entryDy=0;exitX=0.5;exitY=1;exitDx=0;exitDy=0;" edge="1" parent="1" source="GCL94RryrftMxqot2WSn-1" target="GCL94RryrftMxqot2WSn-5">
          <mxGeometry relative="1" as="geometry">
            <mxPoint x="820.0588235294117" y="110" as="sourcePoint" />
            <Array as="points">
              <mxPoint x="820" y="110" />
              <mxPoint x="750" y="110" />
            </Array>
          </mxGeometry>
        </mxCell>
        <mxCell id="GCL94RryrftMxqot2WSn-18" style="edgeStyle=orthogonalEdgeStyle;rounded=0;orthogonalLoop=1;jettySize=auto;html=1;entryX=0.5;entryY=0;entryDx=0;entryDy=0;exitX=0.5;exitY=1;exitDx=0;exitDy=0;" edge="1" parent="1" source="GCL94RryrftMxqot2WSn-1" target="GCL94RryrftMxqot2WSn-2">
          <mxGeometry relative="1" as="geometry">
            <mxPoint x="750" y="80.05882352941171" as="sourcePoint" />
            <mxPoint x="110" y="150" as="targetPoint" />
            <Array as="points">
              <mxPoint x="820" y="110" />
              <mxPoint x="90" y="110" />
            </Array>
          </mxGeometry>
        </mxCell>
        <mxCell id="GCL94RryrftMxqot2WSn-19" style="edgeStyle=orthogonalEdgeStyle;rounded=0;orthogonalLoop=1;jettySize=auto;html=1;entryX=0.5;entryY=0;entryDx=0;entryDy=0;" edge="1" parent="1" target="GCL94RryrftMxqot2WSn-3">
          <mxGeometry relative="1" as="geometry">
            <mxPoint x="820.0588235294117" y="110" as="sourcePoint" />
            <Array as="points">
              <mxPoint x="290" y="110" />
            </Array>
          </mxGeometry>
        </mxCell>
        <mxCell id="GCL94RryrftMxqot2WSn-20" style="edgeStyle=orthogonalEdgeStyle;rounded=0;orthogonalLoop=1;jettySize=auto;html=1;entryX=0.5;entryY=0;entryDx=0;entryDy=0;" edge="1" parent="1" target="GCL94RryrftMxqot2WSn-4">
          <mxGeometry relative="1" as="geometry">
            <mxPoint x="820.0588235294117" y="110" as="sourcePoint" />
            <Array as="points">
              <mxPoint x="500" y="110" />
            </Array>
          </mxGeometry>
        </mxCell>
        <mxCell id="GCL94RryrftMxqot2WSn-21" style="edgeStyle=orthogonalEdgeStyle;rounded=0;orthogonalLoop=1;jettySize=auto;html=1;entryX=0.5;entryY=0;entryDx=0;entryDy=0;" edge="1" parent="1" target="GCL94RryrftMxqot2WSn-9">
          <mxGeometry relative="1" as="geometry">
            <mxPoint x="820.0588235294117" y="110" as="sourcePoint" />
            <Array as="points">
              <mxPoint x="1150" y="110" />
            </Array>
          </mxGeometry>
        </mxCell>
        <mxCell id="GCL94RryrftMxqot2WSn-22" style="edgeStyle=orthogonalEdgeStyle;rounded=0;orthogonalLoop=1;jettySize=auto;html=1;entryX=0.5;entryY=0;entryDx=0;entryDy=0;" edge="1" parent="1" target="GCL94RryrftMxqot2WSn-10">
          <mxGeometry relative="1" as="geometry">
            <mxPoint x="820.0588235294117" y="110" as="sourcePoint" />
            <Array as="points">
              <mxPoint x="1350" y="110" />
            </Array>
          </mxGeometry>
        </mxCell>
        <mxCell id="GCL94RryrftMxqot2WSn-23" style="edgeStyle=orthogonalEdgeStyle;rounded=0;orthogonalLoop=1;jettySize=auto;html=1;entryX=0.5;entryY=0;entryDx=0;entryDy=0;" edge="1" parent="1" target="GCL94RryrftMxqot2WSn-11">
          <mxGeometry relative="1" as="geometry">
            <mxPoint x="820.0588235294117" y="110" as="sourcePoint" />
            <Array as="points">
              <mxPoint x="1550" y="110" />
            </Array>
          </mxGeometry>
        </mxCell>
        <mxCell id="GCL94RryrftMxqot2WSn-1" value="&lt;font style=&quot;font-size: 14px;&quot;&gt;Нормы права&lt;/font&gt;" style="rounded=1;whiteSpace=wrap;html=1;" vertex="1" parent="1">
          <mxGeometry x="750" y="20" width="140" height="60" as="geometry" />
        </mxCell>
        <mxCell id="GCL94RryrftMxqot2WSn-25" style="edgeStyle=orthogonalEdgeStyle;rounded=0;orthogonalLoop=1;jettySize=auto;html=1;entryX=1;entryY=0.5;entryDx=0;entryDy=0;" edge="1" parent="1" source="GCL94RryrftMxqot2WSn-2" target="GCL94RryrftMxqot2WSn-13">
          <mxGeometry relative="1" as="geometry" />
        </mxCell>
        <mxCell id="GCL94RryrftMxqot2WSn-26" style="edgeStyle=orthogonalEdgeStyle;rounded=0;orthogonalLoop=1;jettySize=auto;html=1;entryX=1;entryY=0.5;entryDx=0;entryDy=0;" edge="1" parent="1" source="GCL94RryrftMxqot2WSn-2" target="GCL94RryrftMxqot2WSn-14">
          <mxGeometry relative="1" as="geometry" />
        </mxCell>
        <mxCell id="GCL94RryrftMxqot2WSn-27" style="edgeStyle=orthogonalEdgeStyle;rounded=0;orthogonalLoop=1;jettySize=auto;html=1;entryX=1;entryY=0.5;entryDx=0;entryDy=0;" edge="1" parent="1" source="GCL94RryrftMxqot2WSn-2" target="GCL94RryrftMxqot2WSn-15">
          <mxGeometry relative="1" as="geometry" />
        </mxCell>
        <mxCell id="GCL94RryrftMxqot2WSn-2" value="&lt;font style=&quot;font-size: 14px;&quot;&gt;По содержаиню&lt;/font&gt;" style="rounded=1;whiteSpace=wrap;html=1;" vertex="1" parent="1">
          <mxGeometry x="20" y="150" width="140" height="60" as="geometry" />
        </mxCell>
        <mxCell id="GCL94RryrftMxqot2WSn-34" style="edgeStyle=orthogonalEdgeStyle;rounded=0;orthogonalLoop=1;jettySize=auto;html=1;entryX=1;entryY=0.5;entryDx=0;entryDy=0;" edge="1" parent="1" source="GCL94RryrftMxqot2WSn-3" target="GCL94RryrftMxqot2WSn-28">
          <mxGeometry relative="1" as="geometry" />
        </mxCell>
        <mxCell id="GCL94RryrftMxqot2WSn-35" style="edgeStyle=orthogonalEdgeStyle;rounded=0;orthogonalLoop=1;jettySize=auto;html=1;entryX=1;entryY=0.5;entryDx=0;entryDy=0;" edge="1" parent="1" source="GCL94RryrftMxqot2WSn-3" target="GCL94RryrftMxqot2WSn-29">
          <mxGeometry relative="1" as="geometry" />
        </mxCell>
        <mxCell id="GCL94RryrftMxqot2WSn-36" style="edgeStyle=orthogonalEdgeStyle;rounded=0;orthogonalLoop=1;jettySize=auto;html=1;entryX=1;entryY=0.5;entryDx=0;entryDy=0;" edge="1" parent="1" source="GCL94RryrftMxqot2WSn-3" target="GCL94RryrftMxqot2WSn-30">
          <mxGeometry relative="1" as="geometry" />
        </mxCell>
        <mxCell id="GCL94RryrftMxqot2WSn-37" style="edgeStyle=orthogonalEdgeStyle;rounded=0;orthogonalLoop=1;jettySize=auto;html=1;entryX=1;entryY=0.5;entryDx=0;entryDy=0;" edge="1" parent="1" source="GCL94RryrftMxqot2WSn-3" target="GCL94RryrftMxqot2WSn-31">
          <mxGeometry relative="1" as="geometry" />
        </mxCell>
        <mxCell id="GCL94RryrftMxqot2WSn-3" value="&lt;font style=&quot;font-size: 14px;&quot;&gt;По предмету правового регулирования&lt;/font&gt;" style="rounded=1;whiteSpace=wrap;html=1;" vertex="1" parent="1">
          <mxGeometry x="220" y="150" width="140" height="60" as="geometry" />
        </mxCell>
        <mxCell id="GCL94RryrftMxqot2WSn-40" style="edgeStyle=orthogonalEdgeStyle;rounded=0;orthogonalLoop=1;jettySize=auto;html=1;entryX=0.5;entryY=0;entryDx=0;entryDy=0;" edge="1" parent="1" source="GCL94RryrftMxqot2WSn-4" target="GCL94RryrftMxqot2WSn-38">
          <mxGeometry relative="1" as="geometry">
            <Array as="points">
              <mxPoint x="500" y="230" />
              <mxPoint x="390" y="230" />
            </Array>
          </mxGeometry>
        </mxCell>
        <mxCell id="GCL94RryrftMxqot2WSn-41" style="edgeStyle=orthogonalEdgeStyle;rounded=0;orthogonalLoop=1;jettySize=auto;html=1;entryX=0.5;entryY=0;entryDx=0;entryDy=0;" edge="1" parent="1" source="GCL94RryrftMxqot2WSn-4" target="GCL94RryrftMxqot2WSn-39">
          <mxGeometry relative="1" as="geometry" />
        </mxCell>
        <mxCell id="GCL94RryrftMxqot2WSn-4" value="&lt;font style=&quot;font-size: 14px;&quot;&gt;По характеру&lt;/font&gt;" style="rounded=1;whiteSpace=wrap;html=1;" vertex="1" parent="1">
          <mxGeometry x="430" y="150" width="140" height="60" as="geometry" />
        </mxCell>
        <mxCell id="GCL94RryrftMxqot2WSn-56" style="edgeStyle=orthogonalEdgeStyle;rounded=0;orthogonalLoop=1;jettySize=auto;html=1;entryX=1;entryY=0.5;entryDx=0;entryDy=0;" edge="1" parent="1" source="GCL94RryrftMxqot2WSn-5" target="GCL94RryrftMxqot2WSn-52">
          <mxGeometry relative="1" as="geometry" />
        </mxCell>
        <mxCell id="GCL94RryrftMxqot2WSn-57" style="edgeStyle=orthogonalEdgeStyle;rounded=0;orthogonalLoop=1;jettySize=auto;html=1;entryX=1;entryY=0.5;entryDx=0;entryDy=0;" edge="1" parent="1" source="GCL94RryrftMxqot2WSn-5" target="GCL94RryrftMxqot2WSn-53">
          <mxGeometry relative="1" as="geometry">
            <Array as="points">
              <mxPoint x="750" y="230" />
              <mxPoint x="840" y="230" />
              <mxPoint x="840" y="370" />
            </Array>
          </mxGeometry>
        </mxCell>
        <mxCell id="GCL94RryrftMxqot2WSn-58" style="edgeStyle=orthogonalEdgeStyle;rounded=0;orthogonalLoop=1;jettySize=auto;html=1;entryX=1;entryY=0.5;entryDx=0;entryDy=0;" edge="1" parent="1" source="GCL94RryrftMxqot2WSn-5" target="GCL94RryrftMxqot2WSn-54">
          <mxGeometry relative="1" as="geometry">
            <Array as="points">
              <mxPoint x="750" y="230" />
              <mxPoint x="840" y="230" />
              <mxPoint x="840" y="460" />
            </Array>
          </mxGeometry>
        </mxCell>
        <mxCell id="GCL94RryrftMxqot2WSn-59" style="edgeStyle=orthogonalEdgeStyle;rounded=0;orthogonalLoop=1;jettySize=auto;html=1;entryX=1;entryY=0.5;entryDx=0;entryDy=0;" edge="1" parent="1" source="GCL94RryrftMxqot2WSn-5" target="GCL94RryrftMxqot2WSn-55">
          <mxGeometry relative="1" as="geometry">
            <Array as="points">
              <mxPoint x="750" y="230" />
              <mxPoint x="840" y="230" />
              <mxPoint x="840" y="550" />
            </Array>
          </mxGeometry>
        </mxCell>
        <mxCell id="GCL94RryrftMxqot2WSn-5" value="&lt;font style=&quot;font-size: 14px;&quot;&gt;По методам правового регулирования&lt;/font&gt;" style="rounded=1;whiteSpace=wrap;html=1;" vertex="1" parent="1">
          <mxGeometry x="680" y="150" width="140" height="60" as="geometry" />
        </mxCell>
        <mxCell id="GCL94RryrftMxqot2WSn-62" style="edgeStyle=orthogonalEdgeStyle;rounded=0;orthogonalLoop=1;jettySize=auto;html=1;entryX=1;entryY=0.5;entryDx=0;entryDy=0;" edge="1" parent="1" source="GCL94RryrftMxqot2WSn-8" target="GCL94RryrftMxqot2WSn-60">
          <mxGeometry relative="1" as="geometry" />
        </mxCell>
        <mxCell id="GCL94RryrftMxqot2WSn-63" style="edgeStyle=orthogonalEdgeStyle;rounded=0;orthogonalLoop=1;jettySize=auto;html=1;entryX=1;entryY=0.5;entryDx=0;entryDy=0;" edge="1" parent="1" source="GCL94RryrftMxqot2WSn-8" target="GCL94RryrftMxqot2WSn-61">
          <mxGeometry relative="1" as="geometry">
            <Array as="points">
              <mxPoint x="950" y="230" />
              <mxPoint x="1040" y="230" />
              <mxPoint x="1040" y="370" />
            </Array>
          </mxGeometry>
        </mxCell>
        <mxCell id="GCL94RryrftMxqot2WSn-8" value="&lt;font style=&quot;font-size: 14px;&quot;&gt;По времени действия&lt;/font&gt;" style="rounded=1;whiteSpace=wrap;html=1;" vertex="1" parent="1">
          <mxGeometry x="880" y="150" width="140" height="60" as="geometry" />
        </mxCell>
        <mxCell id="GCL94RryrftMxqot2WSn-69" style="edgeStyle=orthogonalEdgeStyle;rounded=0;orthogonalLoop=1;jettySize=auto;html=1;entryX=1;entryY=0.5;entryDx=0;entryDy=0;" edge="1" parent="1" source="GCL94RryrftMxqot2WSn-9" target="GCL94RryrftMxqot2WSn-64">
          <mxGeometry relative="1" as="geometry" />
        </mxCell>
        <mxCell id="GCL94RryrftMxqot2WSn-70" style="edgeStyle=orthogonalEdgeStyle;rounded=0;orthogonalLoop=1;jettySize=auto;html=1;entryX=1;entryY=0.5;entryDx=0;entryDy=0;" edge="1" parent="1" source="GCL94RryrftMxqot2WSn-9" target="GCL94RryrftMxqot2WSn-65">
          <mxGeometry relative="1" as="geometry">
            <Array as="points">
              <mxPoint x="1150" y="230" />
              <mxPoint x="1240" y="230" />
              <mxPoint x="1240" y="370" />
            </Array>
          </mxGeometry>
        </mxCell>
        <mxCell id="GCL94RryrftMxqot2WSn-71" style="edgeStyle=orthogonalEdgeStyle;rounded=0;orthogonalLoop=1;jettySize=auto;html=1;entryX=1;entryY=0.5;entryDx=0;entryDy=0;" edge="1" parent="1" source="GCL94RryrftMxqot2WSn-9" target="GCL94RryrftMxqot2WSn-67">
          <mxGeometry relative="1" as="geometry">
            <Array as="points">
              <mxPoint x="1150" y="230" />
              <mxPoint x="1240" y="230" />
              <mxPoint x="1240" y="460" />
            </Array>
          </mxGeometry>
        </mxCell>
        <mxCell id="GCL94RryrftMxqot2WSn-72" style="edgeStyle=orthogonalEdgeStyle;rounded=0;orthogonalLoop=1;jettySize=auto;html=1;entryX=1;entryY=0.5;entryDx=0;entryDy=0;" edge="1" parent="1" source="GCL94RryrftMxqot2WSn-9" target="GCL94RryrftMxqot2WSn-68">
          <mxGeometry relative="1" as="geometry">
            <Array as="points">
              <mxPoint x="1150" y="230" />
              <mxPoint x="1240" y="230" />
              <mxPoint x="1240" y="550" />
            </Array>
          </mxGeometry>
        </mxCell>
        <mxCell id="GCL94RryrftMxqot2WSn-9" value="&lt;font style=&quot;font-size: 14px;&quot;&gt;По сфере действия&lt;/font&gt;" style="rounded=1;whiteSpace=wrap;html=1;" vertex="1" parent="1">
          <mxGeometry x="1080" y="150" width="140" height="60" as="geometry" />
        </mxCell>
        <mxCell id="GCL94RryrftMxqot2WSn-75" style="edgeStyle=orthogonalEdgeStyle;rounded=0;orthogonalLoop=1;jettySize=auto;html=1;entryX=1;entryY=0.5;entryDx=0;entryDy=0;" edge="1" parent="1" source="GCL94RryrftMxqot2WSn-10" target="GCL94RryrftMxqot2WSn-73">
          <mxGeometry relative="1" as="geometry" />
        </mxCell>
        <mxCell id="GCL94RryrftMxqot2WSn-76" style="edgeStyle=orthogonalEdgeStyle;rounded=0;orthogonalLoop=1;jettySize=auto;html=1;entryX=1;entryY=0.5;entryDx=0;entryDy=0;" edge="1" parent="1" source="GCL94RryrftMxqot2WSn-10" target="GCL94RryrftMxqot2WSn-74">
          <mxGeometry relative="1" as="geometry">
            <Array as="points">
              <mxPoint x="1350" y="230" />
              <mxPoint x="1440" y="230" />
              <mxPoint x="1440" y="370" />
            </Array>
          </mxGeometry>
        </mxCell>
        <mxCell id="GCL94RryrftMxqot2WSn-10" value="&lt;span style=&quot;font-size: 14px;&quot;&gt;По юридической силе&lt;/span&gt;" style="rounded=1;whiteSpace=wrap;html=1;" vertex="1" parent="1">
          <mxGeometry x="1280" y="150" width="140" height="60" as="geometry" />
        </mxCell>
        <mxCell id="GCL94RryrftMxqot2WSn-81" style="edgeStyle=orthogonalEdgeStyle;rounded=0;orthogonalLoop=1;jettySize=auto;html=1;entryX=1;entryY=0.5;entryDx=0;entryDy=0;" edge="1" parent="1" source="GCL94RryrftMxqot2WSn-11" target="GCL94RryrftMxqot2WSn-77">
          <mxGeometry relative="1" as="geometry" />
        </mxCell>
        <mxCell id="GCL94RryrftMxqot2WSn-82" style="edgeStyle=orthogonalEdgeStyle;rounded=0;orthogonalLoop=1;jettySize=auto;html=1;entryX=1;entryY=0.5;entryDx=0;entryDy=0;" edge="1" parent="1" source="GCL94RryrftMxqot2WSn-11" target="GCL94RryrftMxqot2WSn-78">
          <mxGeometry relative="1" as="geometry">
            <Array as="points">
              <mxPoint x="1550" y="230" />
              <mxPoint x="1640" y="230" />
              <mxPoint x="1640" y="370" />
            </Array>
          </mxGeometry>
        </mxCell>
        <mxCell id="GCL94RryrftMxqot2WSn-83" style="edgeStyle=orthogonalEdgeStyle;rounded=0;orthogonalLoop=1;jettySize=auto;html=1;entryX=1;entryY=0.5;entryDx=0;entryDy=0;" edge="1" parent="1" source="GCL94RryrftMxqot2WSn-11" target="GCL94RryrftMxqot2WSn-79">
          <mxGeometry relative="1" as="geometry">
            <Array as="points">
              <mxPoint x="1550" y="230" />
              <mxPoint x="1640" y="230" />
              <mxPoint x="1640" y="460" />
            </Array>
          </mxGeometry>
        </mxCell>
        <mxCell id="GCL94RryrftMxqot2WSn-11" value="&lt;span style=&quot;font-size: 14px;&quot;&gt;По способу правового регулирования&lt;/span&gt;" style="rounded=1;whiteSpace=wrap;html=1;" vertex="1" parent="1">
          <mxGeometry x="1480" y="150" width="140" height="60" as="geometry" />
        </mxCell>
        <mxCell id="GCL94RryrftMxqot2WSn-13" value="&lt;font style=&quot;font-size: 14px;&quot;&gt;Исходные нормы&lt;/font&gt;" style="rounded=1;whiteSpace=wrap;html=1;" vertex="1" parent="1">
          <mxGeometry x="-100" y="250" width="140" height="60" as="geometry" />
        </mxCell>
        <mxCell id="GCL94RryrftMxqot2WSn-14" value="&lt;font style=&quot;font-size: 14px;&quot;&gt;Общие нормы&lt;/font&gt;" style="rounded=1;whiteSpace=wrap;html=1;" vertex="1" parent="1">
          <mxGeometry x="-100" y="340" width="140" height="60" as="geometry" />
        </mxCell>
        <mxCell id="GCL94RryrftMxqot2WSn-15" value="&lt;font style=&quot;font-size: 14px;&quot;&gt;Специальные нормы&lt;/font&gt;" style="rounded=1;whiteSpace=wrap;html=1;" vertex="1" parent="1">
          <mxGeometry x="-100" y="430" width="140" height="60" as="geometry" />
        </mxCell>
        <mxCell id="GCL94RryrftMxqot2WSn-28" value="&lt;font style=&quot;font-size: 14px;&quot;&gt;Конституционные&lt;/font&gt;" style="rounded=1;whiteSpace=wrap;html=1;" vertex="1" parent="1">
          <mxGeometry x="120" y="250" width="140" height="60" as="geometry" />
        </mxCell>
        <mxCell id="GCL94RryrftMxqot2WSn-29" value="&lt;font style=&quot;font-size: 14px;&quot;&gt;Гражданские&lt;/font&gt;" style="rounded=1;whiteSpace=wrap;html=1;" vertex="1" parent="1">
          <mxGeometry x="120" y="340" width="140" height="60" as="geometry" />
        </mxCell>
        <mxCell id="GCL94RryrftMxqot2WSn-30" value="&lt;font style=&quot;font-size: 14px;&quot;&gt;Административные&lt;/font&gt;" style="rounded=1;whiteSpace=wrap;html=1;" vertex="1" parent="1">
          <mxGeometry x="120" y="430" width="140" height="60" as="geometry" />
        </mxCell>
        <mxCell id="GCL94RryrftMxqot2WSn-31" value="&lt;font style=&quot;font-size: 14px;&quot;&gt;Земельные&lt;/font&gt;" style="rounded=1;whiteSpace=wrap;html=1;" vertex="1" parent="1">
          <mxGeometry x="120" y="520" width="140" height="60" as="geometry" />
        </mxCell>
        <mxCell id="GCL94RryrftMxqot2WSn-45" style="edgeStyle=orthogonalEdgeStyle;rounded=0;orthogonalLoop=1;jettySize=auto;html=1;entryX=1;entryY=0.5;entryDx=0;entryDy=0;" edge="1" parent="1" source="GCL94RryrftMxqot2WSn-38" target="GCL94RryrftMxqot2WSn-42">
          <mxGeometry relative="1" as="geometry">
            <Array as="points">
              <mxPoint x="390" y="330" />
              <mxPoint x="480" y="330" />
              <mxPoint x="480" y="370" />
            </Array>
          </mxGeometry>
        </mxCell>
        <mxCell id="GCL94RryrftMxqot2WSn-46" style="edgeStyle=orthogonalEdgeStyle;rounded=0;orthogonalLoop=1;jettySize=auto;html=1;entryX=1;entryY=0.5;entryDx=0;entryDy=0;" edge="1" parent="1" source="GCL94RryrftMxqot2WSn-38" target="GCL94RryrftMxqot2WSn-43">
          <mxGeometry relative="1" as="geometry">
            <Array as="points">
              <mxPoint x="390" y="330" />
              <mxPoint x="480" y="330" />
              <mxPoint x="480" y="460" />
            </Array>
          </mxGeometry>
        </mxCell>
        <mxCell id="GCL94RryrftMxqot2WSn-47" style="edgeStyle=orthogonalEdgeStyle;rounded=0;orthogonalLoop=1;jettySize=auto;html=1;entryX=1;entryY=0.5;entryDx=0;entryDy=0;" edge="1" parent="1" source="GCL94RryrftMxqot2WSn-38" target="GCL94RryrftMxqot2WSn-44">
          <mxGeometry relative="1" as="geometry">
            <Array as="points">
              <mxPoint x="390" y="330" />
              <mxPoint x="480" y="330" />
              <mxPoint x="480" y="550" />
            </Array>
          </mxGeometry>
        </mxCell>
        <mxCell id="GCL94RryrftMxqot2WSn-38" value="&lt;font style=&quot;font-size: 14px;&quot;&gt;Материальные&lt;/font&gt;" style="rounded=1;whiteSpace=wrap;html=1;" vertex="1" parent="1">
          <mxGeometry x="320" y="250" width="140" height="60" as="geometry" />
        </mxCell>
        <mxCell id="GCL94RryrftMxqot2WSn-50" style="edgeStyle=orthogonalEdgeStyle;rounded=0;orthogonalLoop=1;jettySize=auto;html=1;entryX=1;entryY=0.5;entryDx=0;entryDy=0;" edge="1" parent="1" source="GCL94RryrftMxqot2WSn-39" target="GCL94RryrftMxqot2WSn-48">
          <mxGeometry relative="1" as="geometry" />
        </mxCell>
        <mxCell id="GCL94RryrftMxqot2WSn-51" style="edgeStyle=orthogonalEdgeStyle;rounded=0;orthogonalLoop=1;jettySize=auto;html=1;entryX=1;entryY=0.5;entryDx=0;entryDy=0;" edge="1" parent="1" source="GCL94RryrftMxqot2WSn-39" target="GCL94RryrftMxqot2WSn-49">
          <mxGeometry relative="1" as="geometry">
            <Array as="points">
              <mxPoint x="580" y="330" />
              <mxPoint x="670" y="330" />
              <mxPoint x="670" y="460" />
            </Array>
          </mxGeometry>
        </mxCell>
        <mxCell id="GCL94RryrftMxqot2WSn-39" value="&lt;font style=&quot;font-size: 14px;&quot;&gt;Процессуальные&lt;/font&gt;" style="rounded=1;whiteSpace=wrap;html=1;" vertex="1" parent="1">
          <mxGeometry x="510" y="250" width="140" height="60" as="geometry" />
        </mxCell>
        <mxCell id="GCL94RryrftMxqot2WSn-42" value="&lt;font style=&quot;font-size: 14px;&quot;&gt;Уголовные&lt;/font&gt;" style="rounded=1;whiteSpace=wrap;html=1;" vertex="1" parent="1">
          <mxGeometry x="320" y="340" width="140" height="60" as="geometry" />
        </mxCell>
        <mxCell id="GCL94RryrftMxqot2WSn-43" value="&lt;font style=&quot;font-size: 14px;&quot;&gt;Аграрные&lt;/font&gt;" style="rounded=1;whiteSpace=wrap;html=1;" vertex="1" parent="1">
          <mxGeometry x="320" y="430" width="140" height="60" as="geometry" />
        </mxCell>
        <mxCell id="GCL94RryrftMxqot2WSn-44" value="&lt;font style=&quot;font-size: 14px;&quot;&gt;Экологические&lt;/font&gt;" style="rounded=1;whiteSpace=wrap;html=1;" vertex="1" parent="1">
          <mxGeometry x="320" y="520" width="140" height="60" as="geometry" />
        </mxCell>
        <mxCell id="GCL94RryrftMxqot2WSn-48" value="&lt;font style=&quot;font-size: 14px;&quot;&gt;Уголовно-процессуальные&lt;/font&gt;" style="rounded=1;whiteSpace=wrap;html=1;" vertex="1" parent="1">
          <mxGeometry x="510" y="340" width="140" height="60" as="geometry" />
        </mxCell>
        <mxCell id="GCL94RryrftMxqot2WSn-49" value="&lt;font style=&quot;font-size: 14px;&quot;&gt;Гражданско-процессуальные&lt;/font&gt;" style="rounded=1;whiteSpace=wrap;html=1;" vertex="1" parent="1">
          <mxGeometry x="510" y="430" width="140" height="60" as="geometry" />
        </mxCell>
        <mxCell id="GCL94RryrftMxqot2WSn-52" value="&lt;font style=&quot;font-size: 14px;&quot;&gt;Императивные&lt;/font&gt;" style="rounded=1;whiteSpace=wrap;html=1;" vertex="1" parent="1">
          <mxGeometry x="680" y="250" width="140" height="60" as="geometry" />
        </mxCell>
        <mxCell id="GCL94RryrftMxqot2WSn-53" value="&lt;font style=&quot;font-size: 14px;&quot;&gt;Диспотивные&lt;/font&gt;" style="rounded=1;whiteSpace=wrap;html=1;" vertex="1" parent="1">
          <mxGeometry x="680" y="340" width="140" height="60" as="geometry" />
        </mxCell>
        <mxCell id="GCL94RryrftMxqot2WSn-54" value="&lt;font style=&quot;font-size: 14px;&quot;&gt;Поощрительные&lt;/font&gt;" style="rounded=1;whiteSpace=wrap;html=1;" vertex="1" parent="1">
          <mxGeometry x="680" y="430" width="140" height="60" as="geometry" />
        </mxCell>
        <mxCell id="GCL94RryrftMxqot2WSn-55" value="&lt;font style=&quot;font-size: 14px;&quot;&gt;Рекомендательные&lt;/font&gt;" style="rounded=1;whiteSpace=wrap;html=1;" vertex="1" parent="1">
          <mxGeometry x="680" y="520" width="140" height="60" as="geometry" />
        </mxCell>
        <mxCell id="GCL94RryrftMxqot2WSn-60" value="&lt;font style=&quot;font-size: 14px;&quot;&gt;Постоянные&lt;/font&gt;" style="rounded=1;whiteSpace=wrap;html=1;" vertex="1" parent="1">
          <mxGeometry x="880" y="250" width="140" height="60" as="geometry" />
        </mxCell>
        <mxCell id="GCL94RryrftMxqot2WSn-61" value="&lt;font style=&quot;font-size: 14px;&quot;&gt;Временные&lt;/font&gt;" style="rounded=1;whiteSpace=wrap;html=1;" vertex="1" parent="1">
          <mxGeometry x="880" y="340" width="140" height="60" as="geometry" />
        </mxCell>
        <mxCell id="GCL94RryrftMxqot2WSn-64" value="&lt;font style=&quot;font-size: 14px;&quot;&gt;Общефедеральные&lt;/font&gt;" style="rounded=1;whiteSpace=wrap;html=1;" vertex="1" parent="1">
          <mxGeometry x="1080" y="250" width="140" height="60" as="geometry" />
        </mxCell>
        <mxCell id="GCL94RryrftMxqot2WSn-65" value="&lt;font style=&quot;font-size: 14px;&quot;&gt;Региональные&lt;/font&gt;" style="rounded=1;whiteSpace=wrap;html=1;" vertex="1" parent="1">
          <mxGeometry x="1080" y="340" width="140" height="60" as="geometry" />
        </mxCell>
        <mxCell id="GCL94RryrftMxqot2WSn-67" value="&lt;font style=&quot;font-size: 14px;&quot;&gt;Местные&lt;/font&gt;" style="rounded=1;whiteSpace=wrap;html=1;" vertex="1" parent="1">
          <mxGeometry x="1080" y="430" width="140" height="60" as="geometry" />
        </mxCell>
        <mxCell id="GCL94RryrftMxqot2WSn-68" value="&lt;span style=&quot;font-size: 14px;&quot;&gt;Локальные&lt;/span&gt;" style="rounded=1;whiteSpace=wrap;html=1;" vertex="1" parent="1">
          <mxGeometry x="1080" y="520" width="140" height="60" as="geometry" />
        </mxCell>
        <mxCell id="GCL94RryrftMxqot2WSn-73" value="&lt;font style=&quot;font-size: 14px;&quot;&gt;Правовые нормы законов&lt;/font&gt;" style="rounded=1;whiteSpace=wrap;html=1;" vertex="1" parent="1">
          <mxGeometry x="1280" y="250" width="140" height="60" as="geometry" />
        </mxCell>
        <mxCell id="GCL94RryrftMxqot2WSn-74" value="&lt;font style=&quot;font-size: 14px;&quot;&gt;Подзаконные акты&lt;/font&gt;" style="rounded=1;whiteSpace=wrap;html=1;" vertex="1" parent="1">
          <mxGeometry x="1280" y="340" width="140" height="60" as="geometry" />
        </mxCell>
        <mxCell id="GCL94RryrftMxqot2WSn-77" value="&lt;font style=&quot;font-size: 14px;&quot;&gt;Управомочивающие&lt;/font&gt;" style="rounded=1;whiteSpace=wrap;html=1;" vertex="1" parent="1">
          <mxGeometry x="1480" y="250" width="140" height="60" as="geometry" />
        </mxCell>
        <mxCell id="GCL94RryrftMxqot2WSn-78" value="&lt;font style=&quot;font-size: 14px;&quot;&gt;Обязывающие&lt;/font&gt;" style="rounded=1;whiteSpace=wrap;html=1;" vertex="1" parent="1">
          <mxGeometry x="1480" y="340" width="140" height="60" as="geometry" />
        </mxCell>
        <mxCell id="GCL94RryrftMxqot2WSn-79" value="&lt;font style=&quot;font-size: 14px;&quot;&gt;Запрещающие&lt;/font&gt;" style="rounded=1;whiteSpace=wrap;html=1;" vertex="1" parent="1">
          <mxGeometry x="1480" y="430" width="140" height="60" as="geometry" />
        </mxCell>
        <mxCell id="GCL94RryrftMxqot2WSn-84" value="&lt;font style=&quot;font-size: 32px;&quot;&gt;ПрИ-21&lt;/font&gt;&lt;div style=&quot;font-size: 32px;&quot;&gt;&lt;font style=&quot;font-size: 32px;&quot;&gt;Морзюков М.А.&lt;/font&gt;&lt;/div&gt;" style="text;html=1;align=center;verticalAlign=middle;resizable=0;points=[];autosize=1;strokeColor=none;fillColor=none;" vertex="1" parent="1">
          <mxGeometry x="880" y="610" width="243" height="89" as="geometry" />
        </mxCell>
      </root>
    </mxGraphModel>
  </diagram>
</mxfile>
